<?xml version="1.0" encoding="UTF-8" standalone="no"?>
<!-- Created with Inkscape (http://www.inkscape.org/) -->

<svg
   xmlns:dc="http://purl.org/dc/elements/1.1/"
   xmlns:cc="http://creativecommons.org/ns#"
   xmlns:rdf="http://www.w3.org/1999/02/22-rdf-syntax-ns#"
   xmlns:svg="http://www.w3.org/2000/svg"
   xmlns="http://www.w3.org/2000/svg"
   xmlns:xlink="http://www.w3.org/1999/xlink"
   xmlns:sodipodi="http://sodipodi.sourceforge.net/DTD/sodipodi-0.dtd"
   xmlns:inkscape="http://www.inkscape.org/namespaces/inkscape"
   id="svg2"
   sodipodi:version="0.32"
   inkscape:version="0.92.2 (5c3e80d, 2017-08-06)"
   width="225.40596"
   height="208.8477"
   version="1.0"
   sodipodi:docname="quikclyForgetting.svg"
   inkscape:output_extension="org.inkscape.output.svg.inkscape"
   inkscape:export-filename="C:\Documents and Settings\Nevit\Desktop\pipo2.png"
   inkscape:export-xdpi="424.64789"
   inkscape:export-ydpi="424.64789">
  <title
     id="title3160">Learning</title>
  <metadata
     id="metadata7">
    <rdf:RDF>
      <cc:Work
         rdf:about="">
        <dc:format>image/svg+xml</dc:format>
        <dc:type
           rdf:resource="http://purl.org/dc/dcmitype/StillImage" />
        <dc:title>Learning</dc:title>
        <dc:contributor>
          <cc:Agent>
            <dc:title>Nevit Dilmen
Krzysztof Franek</dc:title>
          </cc:Agent>
        </dc:contributor>
        <dc:date>2013</dc:date>
        <dc:creator>
          <cc:Agent>
            <dc:title>Nevit Dilmen </dc:title>
          </cc:Agent>
        </dc:creator>
        <dc:rights>
          <cc:Agent>
            <dc:title>CC</dc:title>
          </cc:Agent>
        </dc:rights>
        <dc:source>http://commons.wikimedia.org/wiki/File:Mr_pipo_Learning.svg</dc:source>
        <dc:language>none</dc:language>
        <dc:subject>
          <rdf:Bag>
            <rdf:li>Learning</rdf:li>
          </rdf:Bag>
        </dc:subject>
      </cc:Work>
    </rdf:RDF>
  </metadata>
  <defs
     id="defs5">
    <linearGradient
       id="linearGradient3130">
      <stop
         style="stop-color:#d7f4ee;stop-opacity:1;"
         offset="0"
         id="stop3132" />
      <stop
         style="stop-color:#fbfefd;stop-opacity:1;"
         offset="1"
         id="stop3134" />
    </linearGradient>
    <inkscape:path-effect
       fuse_tolerance="0"
       vertical_pattern="false"
       prop_units="false"
       tang_offset="0"
       normal_offset="0"
       spacing="0"
       scale_y_rel="false"
       prop_scale="1"
       copytype="single_stretched"
       pattern="m -66.566148,-13.048801 c 3.27754,1.12709 3.90833,3.02004 6.01851,2.49781 1.10434,-0.2733 2.24466,-1.21496 2.18052,-2.62463 -0.064,-1.40979 -0.57813,-2.88636 -3.01317,-2.88636 -2.43503,0 -5.18586,3.01318 -5.18586,3.01318 z"
       is_visible="true"
       id="path-effect3099"
       effect="skeletal" />
    <inkscape:path-effect
       effect="skeletal"
       id="path-effect3088"
       is_visible="true"
       pattern="M 0,3.01318 C 3.27754,4.14027 3.90833,6.03322 6.01851,5.51099 7.12285,5.23769 8.26317,4.29603 8.19903,2.88636 8.13503,1.47657 7.6209,0 5.18586,0 2.75083,0 0,3.01318 0,3.01318 Z"
       copytype="single_stretched"
       prop_scale="1"
       scale_y_rel="false"
       spacing="0"
       normal_offset="0"
       tang_offset="0"
       prop_units="false"
       vertical_pattern="false"
       fuse_tolerance="0" />
    <inkscape:path-effect
       effect="skeletal"
       id="path-effect3076"
       is_visible="true"
       pattern="M 0,3.01318 C 3.27754,4.14027 3.90833,6.03322 6.01851,5.51099 7.12285,5.23769 8.26317,4.29603 8.19903,2.88636 8.13503,1.47657 7.6209,0 5.18586,0 2.75083,0 0,3.01318 0,3.01318 Z"
       copytype="single_stretched"
       prop_scale="1"
       scale_y_rel="false"
       spacing="0"
       normal_offset="0"
       tang_offset="0"
       prop_units="false"
       vertical_pattern="false"
       fuse_tolerance="0" />
    <inkscape:path-effect
       effect="skeletal"
       id="path-effect3066"
       is_visible="true"
       pattern="m 0.9935246,3.6755297 c 3.2775399,1.12709 3.9083299,3.02004 6.0185099,2.49781 1.10434,-0.2733 2.24466,-1.21496 2.18052,-2.62463 -0.064,-1.40979 -0.57813,-2.88636 -3.01317,-2.88636 -2.43503,0 -5.1858599,3.01318 -5.1858599,3.01318 z"
       copytype="single_stretched"
       prop_scale="1"
       scale_y_rel="false"
       spacing="0"
       normal_offset="0"
       tang_offset="0"
       prop_units="false"
       vertical_pattern="false"
       fuse_tolerance="0" />
    <inkscape:path-effect
       effect="skeletal"
       id="path-effect3056"
       is_visible="true"
       pattern="m 0.9935246,1.3573057 c 3.27754,1.12709 3.90833,3.02004 6.01851,2.49781 1.10434,-0.2733 2.24466,-1.21496 2.18052,-2.62463 -0.064,-1.40979003 -0.57813,-2.88636 -3.01317,-2.88636 -2.43503,0 -5.18586,3.01318 -5.18586,3.01318 z"
       copytype="single_stretched"
       prop_scale="1"
       scale_y_rel="false"
       spacing="0"
       normal_offset="0"
       tang_offset="0"
       prop_units="false"
       vertical_pattern="false"
       fuse_tolerance="0" />
    <inkscape:perspective
       sodipodi:type="inkscape:persp3d"
       inkscape:vp_x="0 : 0.5 : 1"
       inkscape:vp_y="0 : 1000 : 0"
       inkscape:vp_z="1 : 0.5 : 1"
       inkscape:persp3d-origin="0.5 : 0.33333333 : 1"
       id="perspective9" />
    <inkscape:perspective
       id="perspective3082"
       inkscape:persp3d-origin="0.5 : 0.33333333 : 1"
       inkscape:vp_z="1 : 0.5 : 1"
       inkscape:vp_y="0 : 1000 : 0"
       inkscape:vp_x="0 : 0.5 : 1"
       sodipodi:type="inkscape:persp3d" />
    <filter
       id="filter5088"
       inkscape:label="Rubber stamp"
       x="0"
       y="0"
       width="1"
       height="1"
       inkscape:menu="Overlays"
       inkscape:menu-tooltip="Random whiteouts inside"
       style="color-interpolation-filters:sRGB">
      <feTurbulence
         id="feTurbulence5090"
         result="result1"
         baseFrequency="0.064"
         numOctaves="4"
         type="fractalNoise" />
      <feGaussianBlur
         id="feGaussianBlur5092"
         in="SourceAlpha"
         stdDeviation="4.9"
         result="result91" />
      <feComposite
         id="feComposite5094"
         in2="result91"
         operator="out"
         in="SourceAlpha"
         result="result92" />
      <feComposite
         id="feComposite5096"
         in2="result1" />
      <feColorMatrix
         id="feColorMatrix5098"
         result="result1"
         values="1 0 0 0 0 0 1 0 0 0 0 0 1 0 0 0 0 0 20 -9" />
      <feComposite
         id="feComposite5100"
         in2="result1"
         result="result1"
         operator="in"
         in="SourceGraphic" />
      <feTurbulence
         id="feTurbulence5102"
         baseFrequency="0.032"
         numOctaves="1"
         result="result92" />
      <feDisplacementMap
         id="feDisplacementMap5104"
         in2="result92"
         scale="4.1"
         yChannelSelector="G"
         xChannelSelector="R"
         in="result1" />
    </filter>
    <linearGradient
       inkscape:collect="always"
       xlink:href="#linearGradient3130"
       id="linearGradient3136"
       x1="88.091995"
       y1="246.86432"
       x2="88.091995"
       y2="-94.494774"
       gradientUnits="userSpaceOnUse"
       gradientTransform="matrix(0.98019802,0,0,0.92332269,21.30655,97.413932)" />
    <clipPath
       clipPathUnits="userSpaceOnUse"
       id="clipPath3835">
      <rect
         style="opacity:1;vector-effect:none;fill:#000000;fill-opacity:1;fill-rule:evenodd;stroke-width:1;stroke-linecap:butt;stroke-linejoin:miter;stroke-miterlimit:4;stroke-dasharray:none;stroke-dashoffset:0;stroke-opacity:1"
         id="rect3837"
         width="225.40596"
         height="208.8477"
         x="1.0682745"
         y="22.433771" />
    </clipPath>
  </defs>
  <sodipodi:namedview
     inkscape:window-height="1695"
     inkscape:window-width="3200"
     inkscape:pageshadow="2"
     inkscape:pageopacity="1"
     guidetolerance="10.0"
     gridtolerance="10.0"
     objecttolerance="10.0"
     borderopacity="1.0"
     bordercolor="#666666"
     pagecolor="#ffffff"
     id="base"
     showgrid="false"
     inkscape:zoom="1.8721777"
     inkscape:cx="112.19287"
     inkscape:cy="65.965971"
     inkscape:window-x="-13"
     inkscape:window-y="-13"
     inkscape:current-layer="svg2"
     inkscape:window-maximized="1"
     fit-margin-top="0"
     fit-margin-left="0"
     fit-margin-right="0"
     fit-margin-bottom="0" />
  <g
     id="g3831"
     clip-path="url(#clipPath3835)"
     transform="translate(-1.0682745,-22.433771)">
    <rect
       y="0"
       x="0"
       height="330.63101"
       width="226.52228"
       id="rect3120"
       style="fill:url(#linearGradient3136);fill-opacity:1;fill-rule:evenodd;stroke:none" />
    <g
       transform="translate(17.160778,90.631012)"
       id="g3138">
      <path
         style="fill:#00ccff;stroke:none"
         d="M 48.94589,53.32265 C 53.881791,44.792463 74.632459,50.033345 84.232463,52.184374 104.55289,56.73748 118.45005,43.6473 136.59318,43.6473 c 34.82259,0 -77.491256,94.13477 -87.64729,9.67535 z"
         id="path2997"
         inkscape:connector-curvature="0"
         sodipodi:nodetypes="cssc" />
      <path
         inkscape:connector-curvature="0"
         style="fill:#006680"
         d="m 112.5,0 c -3.57034,0 -6.5,0.43287 -6.5,0.96875 0,1.36184 -5.20885,3.86193 -6.84375,3.28125 -0.74174,-0.26345 -2.31674,-0.006 -3.5,0.5625 -0.372545,0.1790129 -0.778269,0.3571656 -1.1875,0.53125 V 17.8125 c 0.16809,-0.0044 0.326584,-0.0035 0.5,0 0.0208,4e-4 0.0418,-6.9e-4 0.0625,0 0.0311,-0.0508 0.096,-0.10994 0.15625,-0.09375 0.2301,0.0103 0.44362,-0.0443 0.65625,-0.125 0.53206,-0.20058 1.00029,-0.37773 1.53125,-0.5625 0.24664,-0.0861 0.4752,-0.21732 0.71875,-0.28125 0.97494,-0.25111 1.90056,-0.40441 2.9375,-0.375 1.22052,0.0345 2.36976,0.15467 3.5625,0.09375 1.37565,-0.0713 2.68308,-0.30851 4.0625,-0.375 0.3583,-0.0162 0.70809,-0.03755 1.0625,-0.03125 1.06323,0.0188 2.11676,0.16124 3.15625,0.4375 0.96923,0.25781 1.88328,0.64249 2.71875,1.15625 0.61741,0.25116 1.26539,0.36569 1.90625,0.59375 2.16417,0.77074 4.16006,1.4142 6.3125,2.40625 3.01695,1.38914 5.51054,3.1096 7.53125,5.65625 0.14607,0.18532 0.2828,0.35907 0.375,0.5625 0.0187,0.004 0.0481,0.01715 0.0625,0.03125 1.56323,1.48367 3.2378,2.93779 3.9375,5.09375 0.0382,0.11681 0.0692,0.22783 0.0937,0.34375 5e-4,-0.0157 0.0154,-0.02885 0.0312,-0.03125 0.0168,3.2e-4 0.0292,0.01605 0.0312,0.03125 0.01,0.28042 0.0626,0.54739 0.1875,0.78125 0.92971,1.75328 1.83095,3.52512 1.9375,5.53125 0.0248,0.46379 -0.051,0.87368 -0.1875,1.28125 -0.0187,0.17749 -0.044,0.35433 -0.0312,0.53125 0.0535,0.67083 0.1131,1.28436 0.0625,1.96875 -0.0928,1.30793 -0.41432,2.45757 -1,3.65625 -0.20139,0.40932 -0.4571,0.75688 -0.75,1.0625 -0.32458,0.4387 -0.52554,0.94272 -0.78125,1.46875 -0.62729,1.29247 -1.50691,2.29923 -2.625,3.125 -0.12609,0.0932 -0.24177,0.17682 -0.375,0.25 -0.71838,0.56663 -1.61788,0.70433 -2.40625,1.125 -0.96945,0.52018 -1.87166,1.0668 -2.78125,1.6875 -1.13869,0.77554 -2.34796,1.38083 -3.40625,2.25 -1.22946,0.69617 -2.29867,1.64098 -3.6875,2.125 -0.30772,0.10621 -0.63056,0.0674 -0.9375,0 0.11302,0.1295 0.2162,0.2674 0.3125,0.40625 0.13092,0.17002 0.26802,0.33805 0.375,0.53125 0.29498,0.53209 0.55307,1.0677 0.75,1.65625 0.1643,0.48131 0.2209,0.97557 0.25,1.46875 0.0268,0.45293 -0.0365,0.87684 -0.125,1.3125 0.0182,0.009 0.0374,0.0459 0.0312,0.0625 -0.0353,0.11679 -0.0915,0.22556 -0.125,0.34375 -0.005,0.0197 0.006,0.0428 0,0.0625 -0.11461,0.40438 -0.24607,0.8169 -0.4375,1.1875 -0.0102,0.0205 -0.0208,0.0421 -0.0312,0.0625 -0.078,0.14284 -0.14427,0.27679 -0.25,0.40625 -0.76841,1.2433 -1.94776,2.14933 -3.3125,2.75 -1.90557,0.84149 -3.59578,1.84545 -5.40625,2.8125 -1.55289,0.82873 -3.22212,1.1996 -5,1.1875 -1.94049,-0.0139 -3.73708,0.29571 -5.59375,0.59375 -0.89437,0.1451 -1.781,0.2585 -2.71875,0.1875 -1.14665,-0.0841 -2.21588,-0.14123 -3.34375,-0.28125 -0.0536,-0.007 -0.10285,-0.02425 -0.15625,-0.03125 -0.15894,0.0252 -0.24895,0.2388 -0.28125,0.40625 -0.0468,0.23891 0.0217,0.48288 -0.0625,0.71875 -0.13687,0.37586 -0.36491,0.69098 -0.65625,0.96875 -1.18748,1.13439 -2.31638,1.92271 -3.5,3.0625 -1.09503,1.05416 -2.02986,2.00697 -3.15625,3 -1.40311,1.23779 -3.04861,1.77391 -4.78125,2.15625 -1.58009,0.34775 -3.18222,0.5885 -4.8125,0.34375 C 76.57184,84.4902 76.17871,84.18663 75.71875,84.03125 74.819841,83.72721 73.906385,83.49375 73.1875,82.875 72.952345,82.8239 72.73241,82.7571 72.5,82.6875 c -0.05775,-0.0199 -0.09685,-0.0684 -0.09375,-0.125 -0.4076,-0.19002 -0.76095,-0.4637 -1,-0.84375 -0.04109,-0.0234 -0.08438,-0.0383 -0.125,-0.0625 -0.0463,-0.0149 -0.0804,-0.0788 -0.0625,-0.125 C 71.22245,81.51975 71.2423,81.509 71.25,81.5 c -0.01368,-0.03 -0.01894,-0.06275 -0.03125,-0.09375 -0.27193,-0.19787 -0.59909,-0.29975 -0.875,-0.5 C 70.01916,80.67586 69.94212,80.28873 69.75,79.96875 68.99791,79.84142 68.36614,79.37468 67.875,78.8125 67.84361,78.7979 67.8124,78.79675 67.78125,78.78125 67.76185,78.76685 67.7536,78.74115 67.75,78.71875 67.23058,78.3996 66.78095,78.00932 66.3125,77.625 66.21847,77.579 66.12368,77.5507 66.03125,77.5 65.98705,77.4757 65.973,77.4207 66,77.375 65.74174,77.16189 65.48993,76.95834 65.21875,76.75 64.59129,76.27075 64.19814,75.56377 64,74.8125 c -0.17122,-0.66322 -0.07088,-1.36083 0.0625,-2.03125 -0.0067,-0.0267 -0.01595,-0.06785 0,-0.09375 0.0021,-0.008 -0.0026,-0.02335 0,-0.03125 0.03181,-0.15205 0.09034,-0.28707 0.125,-0.4375 0.05094,-0.10083 0.08973,-0.19785 0.15625,-0.28125 -0.01786,0.008 -0.04463,-0.008 -0.0625,0 -0.07359,0.0312 -0.14581,0.06025 -0.21875,0.09375 -0.85285,0.38227 -1.73124,0.73854 -2.65625,0.90625 -0.70841,0.13126 -1.44673,0.11875 -2.15625,-0.09375 -0.99965,-0.30168 -1.75196,-0.94691 -2.4375,-1.75 -0.37188,-0.43502 -0.63848,-0.92171 -0.84375,-1.4375 -0.47874,-1.0392 -0.75294,-2.18316 -1,-3.28125 -0.03922,-0.17647 -0.08022,-0.36316 -0.15625,-0.53125 -0.60164,-0.974 -1.06061,-2.02665 -1.375,-3.15625 -0.39582,-1.42748 -0.68129,-2.83492 -0.40625,-4.3125 0.223,-1.18073 0.80134,-2.20999 1.15625,-3.34375 0.11138,-0.3543 0.1441,-0.70254 0.125,-1.0625 -0.29879,-1.34647 -0.23715,-2.74251 0.46875,-4.0625 0.45827,-0.85888 1.1134,-1.45193 1.78125,-2.15625 0.18526,-0.19236 0.35341,-0.38619 0.4375,-0.625 0.06074,-0.17061 0.08829,-0.35649 0.125,-0.53125 -0.10757,-1.58165 0.31583,-3.23517 1,-4.75 0.48866,-1.08287 0.98257,-2.01204 1.5625,-3.03125 0.58629,-1.02866 1.48908,-1.6692 2.25,-2.53125 0.16708,-1.71189 0.96872,-3.18151 2.0625,-4.46875 0.91347,-1.06921 1.95258,-1.91957 3.1875,-2.5625 0.52097,-0.27037 1.06482,-0.40852 1.625,-0.625 0.0881,-0.0363 0.17811,-0.0979 0.25,-0.15625 0.01833,-0.0157 0.04141,-0.007 0.0625,0 1.263,-1.09199 2.60524,-2.01272 3.90625,-3.21875 0.72874,-0.67672 1.48973,-1.13853 2.40625,-1.5 0.78954,-0.31303 1.56904,-0.32934 2.34375,-0.65625 0.93617,-0.39285 1.50481,-1.21162 2.3125,-1.78125 1.20336,-0.84533 2.65166,-1.47644 4.125,-1.15625 0.34647,0.073 0.73542,0.2911 1.03125,0 0.03607,-0.0224 0.09401,-0.0235 0.125,0 0.496753,-0.341044 1.100671,-0.559467 1.71875,-0.71875 V 7.6875 C 86.105531,7.8900178 85.227052,8 84.59375,8 81.63051,8 67.48071,15.39693 63.125,19.21875 59.57448,22.33407 53,30.29917 53,31.5 c 0,0.33817 -0.83177,2.50517 -1.875,4.8125 -1.04324,2.30732 -2.13675,5.8572 -2.40625,7.90625 -0.26949,2.04904 -1.39687,5.29613 -2.53125,7.21875 -3.91658,6.63812 -3.81875,11.34808 0.65625,28.40625 1.20308,4.58601 2.39569,6.8802 4.3125,8.25 6.5914,4.71036 9.21431,13.77968 6.78125,23.40625 -0.55604,2.2 -1.13391,4.99606 -1.3125,6.21875 -0.32326,2.21329 -4.05964,7.36564 -13.59375,18.75 -2.47781,2.78564 -4.31363,6.59044 -6.59375,9.59375 -5.11169,4.24232 -21.69139,37.11197 -26.3125,52.1875 -1.13997,3.71893 -2.57349,7.76306 -3.21875,8.96875 C 4.6344,211.46374 0.00355,231.9012 0,237.75 V 240 h 69.875 c 65.93916,0 69.85892,-0.0983 69.6875,-1.75 -0.0999,-0.9625 -0.69842,-2.95247 -1.3125,-4.40625 -0.61407,-1.45378 -1.40796,-4.26021 -1.78125,-6.25 -0.37329,-1.9898 -1.10805,-3.86801 -1.625,-4.1875 -1.52472,-0.94234 -5.45434,-10.56443 -6.1875,-15.15625 -0.37271,-2.33429 -1.78724,-6.69453 -3.15625,-9.6875 -1.36902,-2.99297 -2.5,-5.82766 -2.5,-6.3125 0,-1.55572 -10.87969,-25.74932 -14.46875,-32.15625 -1.47432,-2.63186 -0.82978,-5.05558 2.875,-10.59375 3.61522,-5.40428 15.03373,-17.50747 17.09375,-18.125 1.10823,-0.33221 3.35,-1.19403 5,-1.90625 1.65,-0.71222 4.2375,-1.56917 5.75,-1.90625 1.5125,-0.33708 2.75,-1.07744 2.75,-1.65625 0,-0.57881 0.74481,-1.77606 1.625,-2.65625 1.16911,-1.16911 1.41477,-2.61702 0.96875,-5.40625 -0.48522,-3.03444 -0.17834,-4.22791 1.4375,-5.84375 2.27106,-2.27106 4.38595,-1.70378 6.9375,1.90625 6.14404,5.54937 13.67961,9.99654 20.78125,14.375 5.87897,3.14342 6.76082,2.98533 11.9375,-2.4375 4.8209,-5.05015 5.08607,-7.72772 1.125,-11.5625 -1.81368,-1.75585 -3.9875,-3.07404 -4.8125,-2.9375 -3.2636,0.54012 -6.06113,2.88108 -7.46875,6.25 -0.98258,2.35164 -1.90472,3.32081 -2.75,2.84375 -0.69903,-0.39451 -5.03831,-3.26118 -9.625,-6.34375 -4.58669,-3.08257 -9.8742,-6.37692 -11.75,-7.34375 -3.96439,-2.04333 -4.20066,-2.96783 -1.28125,-4.90625 1.64279,-1.09077 2.11025,-2.42116 2.09375,-5.875 C 151.18335,88.5503 151.71638,87.2212 155,86.5 c 4.09028,-0.89838 5.01654,-4.62024 2.125,-8.53125 -1.17072,-1.58349 -2.125,-3.1053 -2.125,-3.375 0,-0.26969 -1.35,-2.49267 -3,-4.9375 -3.35267,-4.96771 -3.76116,-7.40883 -1.40625,-8.3125 1.22568,-0.47033 1.44712,-1.42705 0.9375,-4.21875 -0.36249,-1.9857 -1.26315,-4.57304 -2,-5.71875 -0.73684,-1.14571 -1.65157,-4.15564 -2.03125,-6.6875 -0.37968,-2.53186 -2.47159,-8.10882 -4.65625,-12.40625 -4.09964,-8.06433 -6.54683,-14.25672 -7.15625,-18.25 -0.39615,-2.59588 -4.28393,-5.99777 -6.90625,-6.03125 C 127.82341,8.01905 126.46821,7.1 125.78125,6 125.09429,4.9 123.8354,4 123,4 122.1646,4 120.93696,3.1 120.25,2 119.20936,0.33367 117.90852,0 112.5,0 Z"
         id="path2699" />
      <path
         inkscape:connector-curvature="0"
         style="color:#000000;display:inline;overflow:visible;visibility:visible;fill:#006680;fill-opacity:1;stroke:none;stroke-width:0.5;marker:none;enable-background:accumulate"
         d="m 111.59084,-56.881088 c -1.43854,-0.02413 -2.58858,1.113748 -3.07659,1.688954 l -9.023708,-0.269577 -0.0872,4.535588 9.293288,-0.364751 c 0.16681,0.207111 0.41554,0.449407 0.75329,0.666092 l 0.0238,6.169114 -2.33923,0.0083 0.0318,1.371781 h -2.62463 c 0.032,-0.06406 -0.32261,1.731706 -0.57889,2.212339 -0.25629,0.480592 -0.92319,2.371084 -6.11356,3.14005 -5.190491,0.768955 -5.865216,1.791722 -8.492528,4.194694 -2.627192,2.402982 -2.592869,6.890699 -2.592869,6.890699 l -0.03176,5.510984 7.850228,-0.06343 c 0,0 -0.229961,-0.926645 -0.229961,-1.82378 0,-0.89711 0.51455,-2.85276 1.379651,-4.614949 0.865102,-1.762192 2.181073,-1.535093 3.719004,-1.855492 1.537815,-0.320401 3.264195,0.50962 4.321445,1.086328 1.05738,0.57672 0.76924,1.855515 0.76924,1.855515 l 2.59287,-0.03172 -0.0634,1.760338 h 2.918 l -0.0316,1.157709 3.33034,0.03171 0.0318,-1.284566 2.79119,0.06344 0.0316,-1.728627 1.76034,-0.06345 v -1.149768 c 0,0 0.0338,-0.899129 0.61054,-1.379723 0.57681,-0.480592 1.11816,-0.54712 1.11816,-0.54712 l 8.30206,-0.03174 c 0,0 3.16959,-0.09708 3.39387,0.09518 0.22428,0.192231 0.15858,0.483681 0.15858,0.483681 v 2.814971 h 1.41142 v 3.10835 h 2.40264 l -0.0318,-23.740822 -2.27571,0.03172 v 3.940929 h -1.41141 c 0,0 0.0971,2.469507 -0.0952,2.918048 -0.19227,0.448569 -0.7057,0.451975 -0.7057,0.451975 l -10.4431,0.03173 c 0,0 -1.24585,0.126331 -1.95069,-0.610584 -0.70484,-0.736915 -0.57889,-2.854614 -0.57889,-2.854614 h -1.76034 v -1.403492 l -2.11712,0.0083 c -0.002,-0.447096 -0.0285,-5.581187 -0.0318,-6.383198 0.1904,-0.151757 0.34979,-0.307024 0.47587,-0.451999 l 9.3091,0.198259 -0.0872,-4.527735 -9.0475,0.404412 c -0.51818,-0.600432 -1.59507,-1.626613 -2.95774,-1.649339 z"
         id="path3033" />
      <path
         inkscape:connector-curvature="0"
         style="color:#000000;display:inline;overflow:visible;visibility:visible;fill:#00ccff;stroke:none;stroke-width:0.5;marker:none;enable-background:accumulate"
         d="m 90.189283,-19.969438 c -1.127093,3.277544 -3.020039,3.908336 -2.497816,6.018513 0.273301,1.104344 1.214962,2.244664 2.624634,2.180522 1.409793,-0.064 2.886361,-0.578128 2.886361,-3.013177 0,-2.43503 -3.013179,-5.185858 -3.013179,-5.185858 z"
         id="path4390" />
      <path
         id="path3035"
         d="m 89.620145,-3.4644284 c -1.127093,3.27754402 -3.020039,3.90833598 -2.497816,6.018513 0.273301,1.104344 1.214962,2.244664 2.624634,2.180522 1.409793,-0.064 2.886361,-0.578128 2.886361,-3.013177 0,-2.43502998 -3.013179,-5.185858 -3.013179,-5.185858 z"
         style="color:#000000;display:inline;overflow:visible;visibility:visible;fill:#00ccff;stroke:none;stroke-width:0.5;marker:none;enable-background:accumulate"
         inkscape:connector-curvature="0" />
      <path
         inkscape:connector-curvature="0"
         style="color:#000000;display:inline;overflow:visible;visibility:visible;fill:#00ccff;stroke:none;stroke-width:0.5;marker:none;enable-background:accumulate"
         d="m 90.615435,26.130761 c 1.127093,3.277544 3.020039,3.908336 2.497816,6.018513 -0.273301,1.104344 -1.214962,2.244664 -2.624634,2.180522 -1.409793,-0.064 -2.886361,-0.578128 -2.886361,-3.013177 0,-2.43503 3.013179,-5.185858 3.013179,-5.185858 z"
         id="path3037" />
      <path
         style="fill:#00ccff;fill-rule:evenodd;stroke:none"
         d="m 95.093413,50.259983 c 0.753647,-1.97051 2.248827,-2.701553 3.068163,-3.067075 1.015865,-0.453199 1.592744,-0.618374 2.309834,-1.553151 0.65373,-0.852173 1.40582,-2.447733 0.73804,-3.60365 -0.34772,-0.602096 -0.85706,-1.184826 -1.713495,-1.321104 -0.811307,-0.129097 -2.145982,0.162474 -3.549055,1.575085 -1.48147,1.491541 -1.925568,3.678057 -1.743955,5.36228 0.179187,1.661726 0.890468,2.607615 0.890468,2.607615 z"
         id="path3054"
         inkscape:path-effect="#path-effect3056"
         inkscape:original-d="m 94.881599,50.236803 c 0.449879,-4.110958 2.999291,-6.632856 6.292321,-8.279372"
         inkscape:connector-curvature="0" />
      <path
         style="fill:#00ccff;fill-rule:evenodd;stroke:none"
         d="m 90.292164,52.072517 c 0.413916,-1.47748 0.200999,-3.127389 -0.01615,-4.186167 -0.236337,-1.15232 -0.594444,-2.166915 -1.052869,-2.906505 -0.499434,-0.933781 -1.235389,-1.7797 -2.498919,-2.398172 -1.877077,-0.918795 -3.949572,-0.74981 -4.391591,0.621827 -0.489773,1.519011 -0.185223,2.712435 2.137049,4.562567 0.36728,0.292608 0.774953,0.556291 1.204448,0.807357 1.059181,0.742735 2.403793,1.245939 3.282932,1.946913 0.872903,0.696001 1.335103,1.55218 1.335103,1.55218 z"
         id="path3064"
         inkscape:path-effect="#path-effect3066"
         inkscape:original-d="m 90.079563,52.058265 c 0.257348,-3.838901 -4.527028,-7.473901 -7.78261,-8.776134"
         inkscape:connector-curvature="0" />
      <path
         style="fill:#00ccff;stroke:none"
         d="m 85.277528,59.344111 c -3.164357,-2.382034 -4.753285,-5.347549 -1.655875,-8.444959 2.237107,-2.237106 6.072482,0.111334 7.617022,1.655874 1.078323,1.078323 3.169598,-3.217236 4.636448,-2.483811 10.203387,5.101694 10.310247,10.432008 -3.642923,10.432008 -2.346027,0 -4.820058,-0.684753 -6.954672,-1.159112 z"
         id="path3084"
         inkscape:connector-curvature="0" />
      <path
         style="fill:#00ccff;fill-rule:evenodd;stroke:none"
         d="m 96.80578,51.23636 c 0.296504,-0.337873 0.604934,-0.522082 0.878874,-0.634683 0.273938,-0.112607 0.516859,-0.152924 0.729172,-0.175743 0.424633,-0.04565 0.721189,-0.02584 1.050519,-0.221019 0.241,-0.0637 0.46821,-0.155054 0.669235,-0.273113 0.23628,-0.138767 0.41171,-0.304599 0.52484,-0.474708 0.11314,-0.17011 0.16604,-0.344113 0.18022,-0.509937 0.0141,-0.16581 -0.008,-0.324161 -0.0559,-0.471191 -0.0477,-0.14703 -0.12054,-0.2837 -0.23616,-0.400778 -0.11274,-0.114207 -0.24036,-0.218673 -0.39256,-0.294336 -0.1522,-0.07567 -0.331195,-0.12115 -0.527245,-0.125946 -0.19604,-0.0048 -0.40993,0.03518 -0.58481,0.08266 -0.17488,0.04746 -0.301711,0.111411 -0.326623,0.01141 -0.04009,0.01823 -0.08092,0.03761 -0.122279,0.05819 -0.417799,0.207864 -0.80949,0.548985 -1.108868,0.935937 -0.299377,0.386951 -0.504832,0.815976 -0.615309,1.196309 -0.110476,0.380332 -0.128029,0.710695 -0.114641,0.938938 0.01339,0.228243 0.05157,0.35802 0.05157,0.35802 z"
         id="path3086"
         inkscape:connector-curvature="0" />
      <path
         style="fill:#00ccff;fill-rule:evenodd;stroke:none"
         d="m 84.130243,49.980181 c -0.208811,-0.676317 -0.45091,-1.223795 -0.685803,-1.702704 -0.234896,-0.478908 -0.466097,-0.886764 -0.715326,-1.239326 -0.249229,-0.352562 -0.518362,-0.649788 -0.853844,-0.88045 -0.335481,-0.230661 -0.7399,-0.395931 -1.25273,-0.447731 -0.536768,-0.05422 -1.098664,0.05428 -1.496476,0.297978 -0.39781,0.243702 -0.62645,0.609979 -0.608745,1.045892 0.01765,0.435949 0.124185,0.87946 0.395115,1.243929 0.27093,0.364468 0.699067,0.633297 1.402518,0.874589 0.351724,0.120645 0.736799,0.168414 1.140077,0.214915 0.403277,0.0465 0.824308,0.09479 1.216711,0.170579 0.392403,0.07579 0.755279,0.178191 1.022073,0.26663 0.266794,0.08844 0.43643,0.155699 0.43643,0.155699 z"
         id="path3097"
         inkscape:connector-curvature="0" />
      <circle
         style="fill:#f9f9f9;fill-rule:evenodd;stroke:none"
         id="path3102"
         transform="matrix(0.52007897,0,0,0.52007897,116.87281,36.35399)"
         cx="-55.486515"
         cy="52.375488"
         r="4.0041814" />
      <circle
         transform="matrix(0.24739657,0,0,0.24739657,100.03929,43.866271)"
         id="path3104"
         style="fill:#f9f9f9;fill-rule:evenodd;stroke:none"
         cx="-55.486515"
         cy="52.375488"
         r="4.0041814" />
      <circle
         transform="matrix(0.31284035,0,0,0.31284035,111.61936,44.71875)"
         id="path3106"
         style="fill:#f9f9f9;fill-rule:evenodd;stroke:none"
         cx="-55.486515"
         cy="52.375488"
         r="4.0041814" />
      <circle
         style="fill:#f9f9f9;fill-rule:evenodd;stroke:none"
         id="path3108"
         transform="matrix(0.31284035,0,0,0.31284035,109.17357,52.492863)"
         cx="-55.486515"
         cy="52.375488"
         r="4.0041814" />
      <circle
         transform="matrix(0.31284035,0,0,0.31284035,113.89045,52.492863)"
         id="path3110"
         style="fill:#f9f9f9;fill-rule:evenodd;stroke:none"
         cx="-55.486515"
         cy="52.375488"
         r="4.0041814" />
      <circle
         style="fill:#f9f9f9;fill-rule:evenodd;stroke:none"
         id="path3112"
         transform="matrix(0.24739657,0,0,0.24739657,101.43688,60.724741)"
         cx="-55.486515"
         cy="52.375488"
         r="4.0041814" />
      <circle
         transform="matrix(0.1710455,0,0,0.1710455,104.31941,45.288383)"
         id="path3114"
         style="fill:#f9f9f9;fill-rule:evenodd;stroke:none"
         cx="-55.486515"
         cy="52.375488"
         r="4.0041814" />
      <circle
         style="fill:#f9f9f9;fill-rule:evenodd;stroke:none"
         id="path3116"
         transform="matrix(0.1710455,0,0,0.1710455,100.38868,46.948025)"
         cx="-55.486515"
         cy="52.375488"
         r="4.0041814" />
      <circle
         transform="matrix(0.24739657,0,0,0.24739657,99.42784,67.538009)"
         id="path3118"
         style="fill:#f9f9f9;fill-rule:evenodd;stroke:none"
         cx="-55.486515"
         cy="52.375488"
         r="4.0041814" />
      <path
         id="path5011"
         d="m 22.924042,44.070869 c -1.43854,-0.02413 -2.58858,1.113748 -3.07659,1.688954 l -9.023708,-0.269577 -0.0872,4.535588 9.293288,-0.364751 c 0.16681,0.207111 0.41554,0.449407 0.75329,0.666092 l 0.0238,6.169114 -2.33923,0.0083 0.0318,1.371781 h -2.62463 c 0.032,-0.06406 -0.32261,1.731706 -0.57889,2.212339 -0.25629,0.480592 -0.92319,2.371084 -6.11356,3.14005 C 3.991921,63.997714 3.317196,65.020481 0.68988395,67.423453 -1.937308,69.826435 -1.902985,74.314152 -1.902985,74.314152 l -0.03176,5.510984 7.850228,-0.06343 c 0,0 -0.229961,-0.926645 -0.229961,-1.82378 0,-0.89711 0.51455,-2.85276 1.379651,-4.614949 0.865102,-1.762192 2.181073,-1.535093 3.719004,-1.855492 1.537815,-0.320401 3.264195,0.50962 4.321445,1.086328 1.05738,0.57672 0.76924,1.855515 0.76924,1.855515 l 2.59287,-0.03172 -0.0634,1.760338 h 2.918 l -0.0316,1.157709 3.33034,0.03171 0.0318,-1.284566 2.79119,0.06344 0.0316,-1.728627 1.76034,-0.06345 v -1.149768 c 0,0 0.0338,-0.899129 0.61054,-1.379723 0.57681,-0.480592 1.11816,-0.54712 1.11816,-0.54712 l 8.30206,-0.03174 c 0,0 3.16959,-0.09708 3.39387,0.09518 0.22428,0.192231 0.15858,0.483681 0.15858,0.483681 v 2.814971 h 1.41142 v 3.10835 h 2.40264 l -0.0318,-23.740822 -2.27571,0.03172 v 3.940929 h -1.41141 c 0,0 0.0971,2.469507 -0.0952,2.918048 -0.19227,0.448569 -0.7057,0.451975 -0.7057,0.451975 l -10.4431,0.03173 c 0,0 -1.24585,0.126331 -1.95069,-0.610584 -0.70484,-0.736915 -0.57889,-2.854614 -0.57889,-2.854614 h -1.76034 v -1.403492 l -2.11712,0.0083 c -0.002,-0.447096 -0.0285,-5.581187 -0.0318,-6.383198 0.1904,-0.151757 0.34979,-0.307024 0.47587,-0.451999 l 9.3091,0.198259 -0.0872,-4.527735 -9.0475,0.404412 c -0.51818,-0.600432 -1.59507,-1.626613 -2.95774,-1.649339 z"
         style="color:#000000;display:inline;overflow:visible;visibility:visible;fill:#006680;fill-opacity:1;stroke:none;stroke-width:0.5;marker:none;enable-background:accumulate"
         inkscape:connector-curvature="0" />
      <path
         id="path5013"
         d="m 2.0566223,85.255618 c -1.12709301,3.277544 -3.02003901,3.908336 -2.49781601,6.018513 0.273301,1.104344 1.214962,2.244664 2.62463401,2.180522 1.409793,-0.064 2.886361,-0.578128 2.886361,-3.013177 0,-2.43503 -3.013179,-5.185858 -3.013179,-5.185858 z"
         style="color:#000000;display:inline;overflow:visible;visibility:visible;fill:#00ccff;stroke:none;stroke-width:0.5;marker:none;enable-background:accumulate"
         inkscape:connector-curvature="0" />
      <path
         inkscape:connector-curvature="0"
         style="color:#000000;display:inline;overflow:visible;visibility:visible;fill:#00ccff;stroke:none;stroke-width:0.5;marker:none;enable-background:accumulate"
         d="m 1.4874843,101.76063 c -1.12709301,3.27754 -3.020039,3.90833 -2.497816,6.01851 0.27330099,1.10434 1.21496199,2.24466 2.624634,2.18052 1.409793,-0.064 2.886361,-0.57813 2.886361,-3.01317 0,-2.43503 -3.013179,-5.18586 -3.013179,-5.18586 z"
         id="path5015" />
      <path
         id="path5017"
         d="m 2.4827743,131.35582 c 1.127093,3.27754 3.020039,3.90833 2.497816,6.01851 -0.273301,1.10434 -1.214962,2.24466 -2.624634,2.18052 -1.40979301,-0.064 -2.88636101,-0.57813 -2.88636101,-3.01318 0,-2.43503 3.01317901,-5.18585 3.01317901,-5.18585 z"
         style="color:#000000;display:inline;overflow:visible;visibility:visible;fill:#00ccff;stroke:none;stroke-width:0.5;marker:none;enable-background:accumulate"
         inkscape:connector-curvature="0" />
    </g>
  </g>
</svg>
